<svg width="1079" height="1079" viewBox="0 0 1079 1079" fill="none" xmlns="http://www.w3.org/2000/svg">
<path d="M394.11 710.78H580.134L595.939 695.043H409.847L394.11 710.78ZM417.884 686.973H604.111C668.204 623.081 736.87 555.054 780.182 512.112H592.879L417.884 686.973ZM622.135 245.752V430.97L802.409 250.696C775.925 232.869 744.919 222.939 713.006 222.063C681.093 221.188 649.589 229.404 622.168 245.752H622.135ZM828.268 276.588L648.397 456.358H833.514C849.738 428.943 857.857 397.49 856.928 365.647C856 333.804 846.062 302.877 828.268 276.454V276.588ZM370.336 734.521H556.327L572.131 718.784H386.039L370.336 734.521ZM827.428 464.496H640.394L624.623 480.234H811.421V480.973L823.796 468.666C825.04 467.388 826.217 465.875 827.428 464.496ZM600.882 503.974H787.68V504.546C793.834 498.426 799.315 492.945 804.124 488.237H616.62L600.882 503.974ZM307.352 797.538L294.675 810.215C322.989 836.68 412.1 840.782 453.394 832.51C457.564 829.719 461.7 826.693 465.836 823.296C419.767 830.19 336.07 824.541 307.352 797.538ZM313.035 791.821C342.829 819.665 439.876 822.792 477.807 812.738C478.883 811.695 479.96 810.72 481.17 809.644C499.228 791.586 522.531 768.35 548.424 742.39H362.299L313.035 791.821ZM235.323 644.67C224.461 670.173 220.134 697.984 222.735 725.582C225.336 753.18 234.783 779.692 250.22 802.717L263.065 789.871C238.215 764.315 231.254 692.521 235.323 644.67ZM590.223 275.344C585.649 279.951 580.336 285.432 574.519 291.183V478.519L590.525 462.512H590.223V275.344ZM817.676 261.557C816.807 260.685 815.775 259.993 814.638 259.52C813.501 259.048 812.282 258.805 811.051 258.805C809.82 258.805 808.601 259.048 807.464 259.52C806.328 259.993 805.295 260.685 804.427 261.557L243.057 822.893C241.495 824.692 240.673 827.016 240.757 829.397C240.841 831.778 241.824 834.039 243.509 835.724C245.194 837.409 247.454 838.392 249.835 838.476C252.217 838.56 254.541 837.738 256.34 836.176L817.911 274.604C818.788 273.735 819.485 272.701 819.96 271.561C820.436 270.421 820.68 269.198 820.68 267.963C820.68 266.728 820.436 265.505 819.96 264.365C819.485 263.225 818.788 262.191 817.911 261.322L817.676 261.557ZM614.098 251.873C612.854 253.016 611.475 254.058 610.365 255.235L598.36 267.274V454.812L614.4 438.805H614.098V251.873ZM288.958 815.865L276.079 828.744C299.26 844.342 326.002 853.839 353.828 856.355C381.655 858.87 409.667 854.324 435.269 843.136C387.855 847.474 315.322 840.682 288.958 815.865ZM383.551 483.26L367.813 499.098V685.224L383.82 669.184H383.551V483.26ZM336.036 531.145C313.82 553.563 291.559 575.858 269.253 598.029L265.52 601.997C255.802 640.87 259.232 736.976 287.109 765.996L336.305 716.833H336.036V531.145ZM359.81 507.27L344.039 523.074V709.065L360.079 693.059H359.81V507.27ZM255.129 613.834C251.811 617.936 248.707 622.184 245.815 626.578C237.845 668.612 242.25 756.816 268.748 784.39L281.426 771.679C254.255 743.567 248.438 660.34 255.129 613.834ZM566.684 299.219C523.54 342.665 455.412 411.298 391.823 475.29V661.483L567.087 486.219H566.684V299.219Z" fill="#FF8B93" style="fill:#FF8B93;fill:color(display-p3 1.0000 0.5467 0.5769);fill-opacity:1;"/>
</svg>
