<svg width="1024" height="1024" viewBox="0 0 1024 1024" fill="none" xmlns="http://www.w3.org/2000/svg">
<path d="M472.864 318.1L500.974 289.99L472.864 261.711V318.1ZM441.828 230.44L429.421 218.066C428.21 216.822 426.697 215.645 425.285 214.435V365.747L440.988 350.01V230.407L441.828 230.44ZM695.393 671.396V545.37L679.623 561.14V655.794L695.359 671.497L695.393 671.396ZM237.457 213.628L407.397 383.568L417.484 373.682V208.315C390.067 192.113 358.619 184.012 326.786 184.952C294.953 185.893 264.038 195.835 237.625 213.628H237.457ZM671.519 647.859V569.143L655.749 584.913V631.988L671.486 647.724L671.519 647.859ZM758.238 734.611L770.948 747.321C797.377 719.009 801.513 629.869 793.241 588.612C790.349 584.33 787.29 580.172 784.062 576.137C791.056 622.068 785.373 705.76 758.339 734.51L758.238 734.611ZM222.427 224.186C221.554 225.055 220.862 226.087 220.39 227.224C219.918 228.36 219.674 229.579 219.674 230.81C219.674 232.041 219.918 233.26 220.39 234.397C220.862 235.533 221.554 236.566 222.427 237.434L387.995 403.003L401.445 389.553L235.708 224.186C234.839 223.309 233.805 222.612 232.665 222.137C231.525 221.662 230.302 221.417 229.067 221.417C227.833 221.417 226.61 221.662 225.47 222.137C224.33 222.612 223.296 223.309 222.427 224.186ZM776.731 752.869L789.643 765.781C805.218 742.591 814.697 715.851 817.207 688.03C819.716 660.208 815.175 632.203 804.001 606.601C808.305 654.046 801.547 726.507 776.731 752.869ZM752.656 728.827C780.464 699.035 783.625 601.961 773.604 564.066L770.511 560.703C757.7 547.926 742.3 532.458 725.218 515.31L703.362 537.166V679.466L752.656 728.827ZM647.982 592.916L632.447 608.45L647.982 623.951V592.916ZM465.433 254.179L449.125 237.636V341.873L464.861 326.103V254.179H465.433ZM726.832 754.685L677.673 705.525V705.828H534.969L513.483 727.247L558.843 772.539C560.154 773.851 561.499 775.061 562.81 776.272C601.681 786.056 697.848 782.593 726.832 754.685ZM287.995 502.969L315.668 475.296H260.086L287.995 502.969ZM745.292 773.111L732.616 760.401C704.472 787.57 621.25 793.42 574.747 786.729C578.984 790.091 583.221 793.185 587.491 796.043C629.455 804.012 717.653 799.607 745.225 773.111H745.292ZM797.209 785.518L626.26 614.536L612.811 627.986L783.826 798.834C784.709 799.717 785.758 800.418 786.912 800.895C788.066 801.373 789.302 801.619 790.551 801.619C791.8 801.619 793.037 801.373 794.191 800.895C795.345 800.418 796.393 799.717 797.276 798.834C798.159 797.951 798.86 796.902 799.338 795.748C799.816 794.595 800.062 793.358 800.062 792.109C800.062 790.86 799.816 789.623 799.338 788.469C798.86 787.316 798.159 786.267 797.276 785.384L797.209 785.518ZM605.783 806.5C631.278 817.375 659.085 821.714 686.681 819.125C714.278 816.535 740.792 807.099 763.82 791.672L750.941 778.76C725.319 803.609 653.362 810.569 605.716 806.5H605.783ZM653.967 681.752V682.055H558.675L542.972 697.791H669.905L653.9 681.752H653.967ZM630.161 657.946V658.215H582.481L566.745 673.951H646.166L630.161 657.946ZM606.422 634.409L590.517 650.313H622.394L606.422 634.409ZM252.05 467.26H323.704L339.441 451.523H236.179L252.05 467.26ZM206.623 419.748H371.384L381.674 409.425L211.599 239.452C193.763 265.941 183.824 296.955 182.943 328.878C182.062 360.8 190.274 392.315 206.623 419.748ZM216.071 431.517L228.109 443.521H347.477L363.18 427.751H212.81C213.886 428.995 214.928 430.34 216.172 431.517H216.071Z" fill="#FFACB2" style="fill:#FFACB2;fill:color(display-p3 1.0000 0.6765 0.6962);fill-opacity:1;"/>
</svg>
